<svg xmlns="http://www.w3.org/2000/svg" xmlns:xlink="http://www.w3.org/1999/xlink" width="500" zoomAndPan="magnify" viewBox="0 0 375 374.999991" height="500" preserveAspectRatio="xMidYMid meet" version="1.0"><defs><clipPath id="bf5ac67ee2"><path d="M 52.121094 4.132812 L 324.371094 4.132812 L 324.371094 370.882812 L 52.121094 370.882812 Z M 52.121094 4.132812 " clip-rule="nonzero"/></clipPath><clipPath id="6974e8a302"><path d="M 227 4.132812 L 324.371094 4.132812 L 324.371094 102 L 227 102 Z M 227 4.132812 " clip-rule="nonzero"/></clipPath><clipPath id="9efefcb0a6"><path d="M 87.761719 135.4375 L 288.761719 135.4375 L 288.761719 336.4375 L 87.761719 336.4375 Z M 87.761719 135.4375 " clip-rule="nonzero"/></clipPath></defs><g clip-path="url(#bf5ac67ee2)"><path fill="#3d3d3d" d="M 324.417969 101.484375 L 324.417969 351.871094 C 324.417969 352.488281 324.386719 353.101562 324.328125 353.714844 C 324.265625 354.328125 324.175781 354.9375 324.054688 355.542969 C 323.9375 356.148438 323.785156 356.746094 323.609375 357.335938 C 323.429688 357.925781 323.222656 358.503906 322.984375 359.074219 C 322.75 359.644531 322.484375 360.199219 322.195312 360.746094 C 321.90625 361.289062 321.589844 361.816406 321.246094 362.328125 C 320.902344 362.84375 320.535156 363.335938 320.144531 363.8125 C 319.753906 364.289062 319.339844 364.746094 318.90625 365.183594 C 318.46875 365.617188 318.011719 366.03125 317.535156 366.421875 C 317.058594 366.8125 316.5625 367.179688 316.050781 367.523438 C 315.539062 367.867188 315.011719 368.183594 314.46875 368.472656 C 313.921875 368.765625 313.367188 369.027344 312.796875 369.261719 C 312.226562 369.5 311.648438 369.707031 311.058594 369.886719 C 310.46875 370.066406 309.871094 370.214844 309.265625 370.335938 C 308.660156 370.457031 308.050781 370.546875 307.4375 370.605469 C 306.824219 370.667969 306.210938 370.695312 305.59375 370.695312 L 70.949219 370.695312 C 70.332031 370.695312 69.71875 370.667969 69.105469 370.605469 C 68.488281 370.546875 67.882812 370.457031 67.277344 370.335938 C 66.671875 370.214844 66.074219 370.066406 65.484375 369.886719 C 64.894531 369.707031 64.316406 369.5 63.746094 369.261719 C 63.175781 369.027344 62.617188 368.765625 62.074219 368.472656 C 61.53125 368.183594 61.003906 367.867188 60.492188 367.523438 C 59.976562 367.179688 59.484375 366.8125 59.007812 366.421875 C 58.53125 366.03125 58.074219 365.617188 57.636719 365.183594 C 57.203125 364.746094 56.789062 364.289062 56.398438 363.8125 C 56.003906 363.335938 55.640625 362.84375 55.296875 362.328125 C 54.953125 361.816406 54.636719 361.289062 54.347656 360.746094 C 54.054688 360.203125 53.792969 359.644531 53.558594 359.074219 C 53.320312 358.503906 53.113281 357.925781 52.933594 357.335938 C 52.753906 356.746094 52.605469 356.148438 52.484375 355.542969 C 52.367188 354.9375 52.273438 354.328125 52.214844 353.714844 C 52.152344 353.101562 52.125 352.488281 52.125 351.871094 L 52.125 23.125 C 52.125 22.507812 52.152344 21.894531 52.214844 21.28125 C 52.273438 20.664062 52.367188 20.058594 52.484375 19.453125 C 52.605469 18.847656 52.753906 18.25 52.933594 17.660156 C 53.113281 17.070312 53.320312 16.488281 53.558594 15.921875 C 53.792969 15.351562 54.054688 14.792969 54.347656 14.25 C 54.636719 13.707031 54.953125 13.179688 55.296875 12.664062 C 55.640625 12.152344 56.003906 11.660156 56.398438 11.183594 C 56.789062 10.707031 57.203125 10.25 57.636719 9.8125 C 58.074219 9.375 58.53125 8.964844 59.007812 8.570312 C 59.484375 8.179688 59.976562 7.8125 60.492188 7.472656 C 61.003906 7.128906 61.53125 6.8125 62.074219 6.523438 C 62.617188 6.230469 63.175781 5.96875 63.746094 5.730469 C 64.316406 5.496094 64.894531 5.289062 65.484375 5.109375 C 66.074219 4.929688 66.671875 4.78125 67.277344 4.660156 C 67.882812 4.539062 68.488281 4.449219 69.105469 4.390625 C 69.71875 4.328125 70.332031 4.296875 70.949219 4.296875 L 227.230469 4.296875 Z M 324.417969 101.484375 " fill-opacity="1" fill-rule="nonzero"/></g><g clip-path="url(#6974e8a302)"><path fill="#535353" d="M 324.417969 101.484375 L 235.128906 101.484375 C 234.609375 101.484375 234.09375 101.4375 233.585938 101.335938 C 233.078125 101.234375 232.585938 101.082031 232.105469 100.886719 C 231.625 100.6875 231.171875 100.445312 230.742188 100.15625 C 230.308594 99.867188 229.910156 99.539062 229.542969 99.171875 C 229.175781 98.808594 228.851562 98.410156 228.5625 97.976562 C 228.273438 97.546875 228.03125 97.089844 227.832031 96.613281 C 227.632812 96.132812 227.484375 95.640625 227.382812 95.132812 C 227.28125 94.621094 227.230469 94.109375 227.230469 93.589844 L 227.230469 4.296875 Z M 324.417969 101.484375 " fill-opacity="1" fill-rule="nonzero"/></g><path fill="#ffffff" d="M 121.941406 203.917969 L 100.71875 203.917969 L 100.71875 260.566406 L 121.941406 260.566406 C 140.015625 260.566406 151.636719 249.027344 151.636719 232.242188 C 151.632812 215.375 140.015625 203.917969 121.941406 203.917969 Z M 121.050781 248.625 L 114.515625 248.625 L 114.515625 215.699219 L 121.050781 215.699219 C 131.460938 215.699219 137.59375 221.832031 137.59375 232.242188 C 137.59375 242.652344 131.460938 248.625 121.050781 248.625 Z M 121.050781 248.625 " fill-opacity="1" fill-rule="nonzero"/><path fill="#ffffff" d="M 186.171875 203.109375 C 170.117188 203.109375 157.042969 215.046875 157.042969 232.078125 C 157.042969 249.113281 170.113281 261.128906 186.171875 261.128906 C 202.230469 261.128906 215.140625 249.109375 215.140625 232.078125 C 215.140625 215.050781 202.3125 203.109375 186.171875 203.109375 Z M 186.171875 248.542969 C 176.980469 248.542969 171.164062 242.007812 171.164062 232.074219 C 171.164062 221.988281 176.972656 215.609375 186.171875 215.609375 C 195.210938 215.609375 201.101562 221.984375 201.101562 232.074219 C 201.101562 242.007812 195.210938 248.542969 186.171875 248.542969 Z M 186.171875 248.542969 " fill-opacity="1" fill-rule="nonzero"/><path fill="#ffffff" d="M 248.792969 248.460938 C 240.320312 248.460938 234.507812 242.167969 234.507812 232.160156 C 234.507812 222.15625 240.320312 215.859375 248.792969 215.859375 C 254.039062 215.859375 258.3125 218.28125 260.652344 223.125 L 275.824219 223.125 C 272.597656 210.859375 262.429688 203.273438 248.953125 203.273438 C 232.25 203.273438 220.46875 215.210938 220.46875 232.160156 C 220.46875 249.113281 232.25 260.976562 248.953125 260.976562 C 262.429688 260.976562 272.597656 253.472656 275.824219 241.207031 L 260.652344 241.207031 C 258.3125 246.039062 254.039062 248.460938 248.792969 248.460938 Z M 248.792969 248.460938 " fill-opacity="1" fill-rule="nonzero"/><path fill="#ff0013" d="M 274.832031 165.835938 C 273.476562 169.582031 272.101562 173.5 272.566406 177.460938 C 272.820312 179.601562 273.605469 181.660156 273.796875 183.8125 C 273.96875 185.742188 273.652344 187.675781 273.335938 189.589844 C 272.886719 192.324219 272.433594 195.058594 271.984375 197.792969 C 270.863281 200.53125 269.035156 203.53125 267.972656 206.292969 C 266.910156 209.054688 266.296875 212.109375 267.039062 214.972656 C 267.777344 217.835938 269.972656 219.265625 272.824219 220.621094 C 274.335938 221.957031 275.324219 224.003906 274.996094 225.992188 C 274.871094 226.761719 274.558594 227.484375 274.355469 228.234375 C 273.894531 229.929688 273.980469 231.722656 274.179688 233.46875 C 274.25 234.0625 274.328125 234.660156 274.492188 235.238281 C 274.855469 236.515625 275.605469 238.265625 275.800781 239.578125 C 276.632812 240.59375 276.835938 242.015625 276.617188 243.308594 C 276.402344 244.601562 275.808594 245.800781 275.191406 246.957031 C 274.496094 248.265625 273.75 249.558594 273.191406 250.933594 C 272.636719 252.308594 272.265625 253.789062 272.359375 255.269531 C 272.453125 256.75 273.050781 258.238281 274.171875 259.210938 C 273.804688 265.332031 269.984375 271.746094 268.253906 277.632812 C 267.5625 279.988281 267.179688 282.425781 266.796875 284.855469 C 266.535156 286.515625 266.273438 288.195312 266.40625 289.875 C 266.539062 291.550781 267.109375 293.25 268.296875 294.441406 C 269.671875 297.511719 272.886719 299.996094 274.253906 303.070312 C 275.058594 304.886719 275.203125 306.941406 274.984375 308.914062 C 274.765625 310.890625 273.917969 313.078125 273.355469 314.980469 C 273.933594 316.335938 274.457031 317.714844 274.925781 319.109375 C 275.238281 320.023438 275.507812 321.085938 274.988281 321.902344 C 274.539062 322.601562 273.652344 322.867188 272.835938 323.027344 C 272.019531 323.1875 271.132812 323.328125 270.535156 323.90625 C 269.917969 324.507812 269.671875 325.519531 268.871094 325.828125 C 268.339844 326.035156 267.742188 325.847656 267.199219 325.664062 C 265.484375 325.066406 263.765625 324.472656 262.046875 323.875 C 259.171875 322.460938 255.535156 321.59375 252.425781 320.8125 C 251.417969 320.558594 250.410156 320.304688 249.375 320.183594 C 246.832031 319.886719 243.636719 320.585938 241.425781 321.878906 C 238.363281 321.488281 235.300781 321.09375 232.238281 320.703125 C 230.988281 320.542969 229.734375 320.382812 228.511719 320.078125 C 224.957031 319.195312 221.820312 317.144531 218.757812 315.132812 C 216.941406 315.433594 214.652344 314.289062 212.816406 314.101562 C 210.984375 313.917969 209.164062 314.710938 207.738281 315.875 C 206.3125 317.039062 204.910156 318.976562 203.832031 320.46875 C 202.851562 321.570312 201.503906 322.335938 200.054688 322.617188 C 198.609375 322.902344 197.070312 322.699219 195.746094 322.046875 C 195 321.9375 193.550781 321.835938 192.800781 321.726562 C 192.105469 321.621094 191.402344 321.515625 190.699219 321.578125 C 189.679688 321.667969 188.722656 322.101562 187.789062 322.527344 C 186.898438 322.9375 186.003906 323.347656 185.113281 323.753906 C 184.160156 324.644531 182.28125 324.835938 181.011719 324.53125 C 179.746094 324.226562 178.617188 323.53125 177.484375 322.882812 C 175.628906 321.816406 173.679688 320.84375 171.574219 320.460938 C 169.46875 320.078125 166.625 320.46875 164.886719 321.714844 C 160.839844 321.46875 156.847656 320.3125 153.296875 318.359375 C 152.03125 317.660156 150.820312 316.867188 149.515625 316.246094 C 148.207031 315.628906 146.78125 315.1875 145.339844 315.265625 C 143.082031 314.910156 140.191406 314.828125 137.933594 314.472656 C 137.167969 316.339844 136.292969 318.191406 135 319.738281 C 133.703125 321.285156 131.9375 322.515625 129.941406 322.816406 C 129.328125 322.910156 128.691406 322.914062 128.097656 322.730469 C 126.914062 322.371094 125.84375 321.21875 125.074219 320.25 C 123.757812 321.175781 122.105469 321.449219 120.589844 321.996094 C 119.75 322.300781 118.929688 322.695312 118.042969 322.824219 C 117.261719 322.9375 116.46875 322.835938 115.691406 322.710938 C 114.660156 322.542969 113.632812 322.328125 112.621094 322.070312 C 111.746094 321.847656 110.507812 321.683594 109.632812 321.90625 C 108.480469 322.671875 107.191406 323.277344 105.816406 323.417969 C 104.441406 323.558594 102.972656 323.195312 101.976562 322.238281 C 101.398438 321.679688 101.003906 320.957031 100.6875 320.21875 C 99.480469 317.394531 99.332031 314.136719 100.273438 311.210938 C 101.039062 308.496094 101.949219 305.160156 102.710938 302.445312 C 103.28125 300.425781 103.855469 298.394531 104 296.300781 C 104.144531 294.210938 103.832031 292.03125 102.742188 290.242188 C 102.753906 287.824219 102.550781 285.226562 102.761719 282.820312 C 102.964844 280.5 103.175781 278.15625 103.863281 275.933594 C 104.4375 274.074219 105.339844 272.335938 106.171875 270.578125 C 107.132812 268.542969 108.007812 266.46875 108.792969 264.363281 C 110.164062 262.550781 110.546875 259.363281 109.625 257.289062 C 108.703125 255.210938 106.765625 253.464844 104.863281 252.226562 C 104.285156 251.847656 103.683594 251.5 103.167969 251.039062 C 102.652344 250.582031 101.960938 249.386719 101.832031 248.710938 C 101.085938 246.585938 102.136719 244.308594 102.542969 242.097656 C 103.179688 238.640625 102.136719 234.914062 99.796875 232.289062 C 99.335938 231.769531 98.800781 231.25 98.65625 230.570312 C 98.449219 229.613281 99.0625 228.695312 99.609375 227.886719 C 101.726562 224.730469 103.492188 220.636719 104.320312 216.929688 C 103.664062 215.050781 102.71875 213.042969 102.613281 211.054688 C 102.421875 207.410156 104.117188 203.964844 105.753906 200.703125 C 107.394531 197.441406 109.441406 193.066406 109.195312 189.425781 C 110.804688 184.644531 111.230469 179.308594 105.132812 173.46875 C 102.890625 171.203125 101.574219 168.050781 101.539062 164.863281 C 101.507812 162.1875 102.339844 159.535156 102.125 156.871094 C 101.78125 152.691406 98.925781 148.597656 99.285156 144.421875 C 108.558594 144.539062 117.328125 150.351562 126.53125 151.503906 C 127.707031 151.863281 129.566406 151.820312 130.753906 151.503906 C 131.945312 151.191406 133.089844 150.714844 134.285156 150.429688 C 136.617188 149.867188 139.121094 150.039062 141.351562 150.917969 C 144.726562 151.074219 148.710938 151.417969 151.742188 152.914062 C 153.285156 153.679688 154.652344 154.757812 156.203125 155.507812 C 158.035156 156.390625 160.058594 156.785156 162.054688 157.171875 C 163.085938 157.625 164.789062 157.949219 165.882812 157.679688 C 166.980469 157.414062 167.988281 156.859375 168.894531 156.1875 C 170.011719 155.355469 170.992188 154.339844 171.773438 153.1875 C 172.582031 152 173.878906 150.308594 175.175781 149.6875 C 176.621094 148.804688 178.476562 149.058594 180.101562 149.53125 C 181.726562 150.007812 183.355469 150.679688 185.042969 150.546875 C 186.113281 150.460938 187.128906 150.054688 188.125 149.652344 C 189.222656 149.207031 190.316406 148.765625 191.414062 148.324219 C 192.902344 147.503906 195.1875 147.664062 196.839844 148.070312 C 198.488281 148.476562 200.011719 149.273438 201.53125 150.035156 C 203.046875 150.800781 204.605469 151.542969 206.285156 151.832031 C 208.238281 151.976562 210.085938 150.675781 211.757812 150.425781 C 214.9375 149.949219 218.515625 151.195312 221.484375 152.429688 C 224.253906 154.109375 227.113281 155.828125 230.316406 156.320312 C 232.367188 156.636719 235.363281 156.53125 237.261719 157.367188 C 238.960938 157.804688 240.753906 157.859375 242.480469 157.53125 C 244.589844 157.125 246.558594 156.152344 248.335938 154.949219 C 250.113281 153.746094 252.167969 152.183594 253.769531 150.75 C 256.300781 149.210938 259.421875 148.667969 262.328125 149.257812 C 263.644531 149.523438 264.914062 150.015625 266.242188 150.234375 C 268 150.40625 270.128906 149.953125 271.738281 149.214844 C 273.347656 148.480469 274.855469 147.539062 276.476562 146.828125 C 277.207031 146.507812 278.0625 146.234375 278.785156 146.578125 C 279.363281 146.847656 279.714844 147.464844 279.828125 148.09375 C 279.9375 148.71875 279.839844 149.363281 279.730469 149.988281 C 278.847656 154.964844 277.023438 159.714844 275.207031 164.429688 " fill-opacity="1" fill-rule="nonzero"/><g clip-path="url(#9efefcb0a6)"><path fill="#3d3d3d" d="M 87.761719 135.4375 L 288.773438 135.4375 L 288.773438 336.449219 L 87.761719 336.449219 Z M 87.761719 135.4375 " fill-opacity="1" fill-rule="nonzero"/></g></svg>