<svg xmlns="http://www.w3.org/2000/svg" xmlns:xlink="http://www.w3.org/1999/xlink" width="500" zoomAndPan="magnify" viewBox="0 0 375 374.999991" height="500" preserveAspectRatio="xMidYMid meet" version="1.0"><defs><clipPath id="d17329138c"><path d="M 52.121094 4.132812 L 324.371094 4.132812 L 324.371094 370.882812 L 52.121094 370.882812 Z M 52.121094 4.132812 " clip-rule="nonzero"/></clipPath><clipPath id="9a12985c67"><path d="M 227 4.132812 L 324.371094 4.132812 L 324.371094 102 L 227 102 Z M 227 4.132812 " clip-rule="nonzero"/></clipPath><clipPath id="bf5aea6b6a"><path d="M 87.761719 135.4375 L 288.761719 135.4375 L 288.761719 336.4375 L 87.761719 336.4375 Z M 87.761719 135.4375 " clip-rule="nonzero"/></clipPath></defs><g clip-path="url(#d17329138c)"><path fill="#006fe8" d="M 324.371094 101.492188 L 324.371094 351.894531 C 324.371094 352.507812 324.339844 353.125 324.28125 353.738281 C 324.21875 354.351562 324.128906 354.960938 324.007812 355.566406 C 323.890625 356.171875 323.738281 356.769531 323.5625 357.359375 C 323.382812 357.949219 323.175781 358.527344 322.9375 359.097656 C 322.703125 359.667969 322.4375 360.222656 322.148438 360.769531 C 321.859375 361.3125 321.542969 361.839844 321.199219 362.351562 C 320.855469 362.863281 320.488281 363.359375 320.097656 363.835938 C 319.707031 364.3125 319.292969 364.769531 318.859375 365.207031 C 318.421875 365.640625 317.964844 366.054688 317.488281 366.445312 C 317.011719 366.835938 316.519531 367.203125 316.007812 367.546875 C 315.492188 367.890625 314.964844 368.207031 314.421875 368.496094 C 313.878906 368.789062 313.320312 369.050781 312.753906 369.285156 C 312.183594 369.523438 311.601562 369.730469 311.011719 369.910156 C 310.421875 370.089844 309.824219 370.238281 309.222656 370.359375 C 308.617188 370.480469 308.007812 370.570312 307.394531 370.628906 C 306.78125 370.691406 306.164062 370.71875 305.550781 370.71875 L 70.945312 370.71875 C 70.328125 370.71875 69.714844 370.691406 69.101562 370.628906 C 68.488281 370.570312 67.878906 370.480469 67.273438 370.359375 C 66.667969 370.238281 66.070312 370.089844 65.480469 369.910156 C 64.890625 369.730469 64.3125 369.523438 63.742188 369.285156 C 63.171875 369.050781 62.617188 368.789062 62.074219 368.496094 C 61.53125 368.207031 61 367.890625 60.488281 367.546875 C 59.976562 367.203125 59.480469 366.835938 59.003906 366.445312 C 58.527344 366.054688 58.074219 365.640625 57.636719 365.207031 C 57.199219 364.769531 56.789062 364.3125 56.394531 363.835938 C 56.003906 363.359375 55.636719 362.863281 55.296875 362.351562 C 54.953125 361.839844 54.636719 361.3125 54.347656 360.769531 C 54.054688 360.222656 53.792969 359.667969 53.558594 359.097656 C 53.320312 358.527344 53.113281 357.949219 52.933594 357.359375 C 52.753906 356.769531 52.605469 356.171875 52.484375 355.566406 C 52.367188 354.960938 52.273438 354.351562 52.214844 353.738281 C 52.152344 353.125 52.125 352.507812 52.125 351.894531 L 52.125 23.125 C 52.125 22.507812 52.152344 21.894531 52.214844 21.28125 C 52.273438 20.667969 52.367188 20.058594 52.484375 19.453125 C 52.605469 18.847656 52.753906 18.25 52.933594 17.660156 C 53.113281 17.070312 53.320312 16.492188 53.558594 15.921875 C 53.792969 15.351562 54.054688 14.792969 54.347656 14.25 C 54.636719 13.707031 54.953125 13.179688 55.296875 12.667969 C 55.636719 12.152344 56.003906 11.660156 56.394531 11.183594 C 56.789062 10.707031 57.199219 10.25 57.636719 9.8125 C 58.074219 9.378906 58.527344 8.964844 59.003906 8.574219 C 59.480469 8.179688 59.976562 7.8125 60.488281 7.472656 C 61 7.128906 61.53125 6.8125 62.074219 6.523438 C 62.617188 6.230469 63.171875 5.96875 63.742188 5.730469 C 64.3125 5.496094 64.890625 5.289062 65.480469 5.109375 C 66.070312 4.929688 66.667969 4.78125 67.273438 4.660156 C 67.878906 4.539062 68.488281 4.449219 69.101562 4.390625 C 69.714844 4.328125 70.328125 4.296875 70.945312 4.296875 L 227.203125 4.296875 Z M 324.371094 101.492188 " fill-opacity="1" fill-rule="nonzero"/></g><g clip-path="url(#9a12985c67)"><path fill="#5aa9ff" d="M 324.371094 101.492188 L 235.09375 101.492188 C 234.578125 101.492188 234.0625 101.441406 233.554688 101.339844 C 233.046875 101.238281 232.554688 101.089844 232.074219 100.890625 C 231.597656 100.691406 231.140625 100.449219 230.710938 100.160156 C 230.277344 99.875 229.878906 99.546875 229.511719 99.179688 C 229.148438 98.8125 228.820312 98.414062 228.53125 97.984375 C 228.242188 97.550781 228 97.097656 227.800781 96.617188 C 227.605469 96.140625 227.453125 95.644531 227.351562 95.136719 C 227.25 94.628906 227.203125 94.113281 227.203125 93.597656 L 227.203125 4.296875 Z M 324.371094 101.492188 " fill-opacity="1" fill-rule="nonzero"/></g><path fill="#ffffff" d="M 121.925781 203.929688 L 100.707031 203.929688 L 100.707031 260.582031 L 121.925781 260.582031 C 140 260.582031 151.621094 249.042969 151.621094 232.257812 C 151.617188 215.390625 140 203.929688 121.925781 203.929688 Z M 121.039062 248.640625 L 114.503906 248.640625 L 114.503906 215.710938 L 121.039062 215.710938 C 131.449219 215.710938 137.578125 221.847656 137.578125 232.257812 C 137.578125 242.667969 131.449219 248.640625 121.039062 248.640625 Z M 121.039062 248.640625 " fill-opacity="1" fill-rule="nonzero"/><path fill="#ffffff" d="M 186.148438 203.125 C 170.097656 203.125 157.023438 215.0625 157.023438 232.09375 C 157.023438 249.128906 170.09375 261.148438 186.148438 261.148438 C 202.207031 261.148438 215.113281 249.125 215.113281 232.09375 C 215.113281 215.066406 202.285156 203.125 186.148438 203.125 Z M 186.148438 248.558594 C 176.957031 248.558594 171.144531 242.023438 171.144531 232.089844 C 171.144531 222.003906 176.953125 215.625 186.148438 215.625 C 195.183594 215.625 201.074219 222 201.074219 232.089844 C 201.074219 242.023438 195.183594 248.558594 186.148438 248.558594 Z M 186.148438 248.558594 " fill-opacity="1" fill-rule="nonzero"/><path fill="#ffffff" d="M 248.757812 248.476562 C 240.285156 248.476562 234.476562 242.183594 234.476562 232.175781 C 234.476562 222.167969 240.285156 215.875 248.757812 215.875 C 254.003906 215.875 258.277344 218.296875 260.617188 223.136719 L 275.785156 223.136719 C 272.558594 210.871094 262.394531 203.285156 248.917969 203.285156 C 232.21875 203.285156 220.4375 215.222656 220.4375 232.175781 C 220.4375 249.128906 232.21875 260.992188 248.917969 260.992188 C 262.394531 260.992188 272.558594 253.488281 275.785156 241.222656 L 260.617188 241.222656 C 258.277344 246.054688 254.003906 248.476562 248.757812 248.476562 Z M 248.757812 248.476562 " fill-opacity="1" fill-rule="nonzero"/><path fill="#ff0013" d="M 274.832031 165.835938 C 273.476562 169.582031 272.101562 173.5 272.566406 177.460938 C 272.820312 179.601562 273.605469 181.660156 273.796875 183.8125 C 273.96875 185.742188 273.652344 187.675781 273.335938 189.589844 C 272.886719 192.324219 272.433594 195.058594 271.984375 197.792969 C 270.863281 200.53125 269.035156 203.53125 267.972656 206.292969 C 266.910156 209.054688 266.296875 212.109375 267.039062 214.972656 C 267.777344 217.835938 269.972656 219.265625 272.824219 220.621094 C 274.335938 221.957031 275.324219 224.003906 274.996094 225.992188 C 274.871094 226.761719 274.558594 227.484375 274.355469 228.234375 C 273.894531 229.929688 273.980469 231.722656 274.179688 233.46875 C 274.25 234.0625 274.328125 234.660156 274.492188 235.238281 C 274.855469 236.515625 275.605469 238.265625 275.800781 239.578125 C 276.632812 240.59375 276.835938 242.015625 276.617188 243.308594 C 276.402344 244.601562 275.808594 245.800781 275.191406 246.957031 C 274.496094 248.265625 273.75 249.558594 273.191406 250.933594 C 272.636719 252.308594 272.265625 253.789062 272.359375 255.269531 C 272.453125 256.75 273.050781 258.238281 274.171875 259.210938 C 273.804688 265.332031 269.984375 271.746094 268.253906 277.632812 C 267.5625 279.988281 267.179688 282.425781 266.796875 284.855469 C 266.535156 286.515625 266.273438 288.195312 266.40625 289.875 C 266.539062 291.550781 267.109375 293.25 268.296875 294.441406 C 269.671875 297.511719 272.886719 299.996094 274.253906 303.070312 C 275.058594 304.886719 275.203125 306.941406 274.984375 308.914062 C 274.765625 310.890625 273.917969 313.078125 273.355469 314.980469 C 273.933594 316.335938 274.457031 317.714844 274.925781 319.109375 C 275.238281 320.023438 275.507812 321.085938 274.988281 321.902344 C 274.539062 322.601562 273.652344 322.867188 272.835938 323.027344 C 272.019531 323.1875 271.132812 323.328125 270.535156 323.90625 C 269.917969 324.507812 269.671875 325.519531 268.871094 325.828125 C 268.339844 326.035156 267.742188 325.847656 267.199219 325.664062 C 265.484375 325.066406 263.765625 324.472656 262.046875 323.875 C 259.171875 322.460938 255.535156 321.59375 252.425781 320.8125 C 251.417969 320.558594 250.410156 320.304688 249.375 320.183594 C 246.832031 319.886719 243.636719 320.585938 241.425781 321.878906 C 238.363281 321.488281 235.300781 321.09375 232.238281 320.703125 C 230.988281 320.542969 229.734375 320.382812 228.511719 320.078125 C 224.957031 319.195312 221.820312 317.144531 218.757812 315.132812 C 216.941406 315.433594 214.652344 314.289062 212.816406 314.101562 C 210.984375 313.917969 209.164062 314.710938 207.738281 315.875 C 206.3125 317.039062 204.910156 318.976562 203.832031 320.46875 C 202.851562 321.570312 201.503906 322.335938 200.054688 322.617188 C 198.609375 322.902344 197.070312 322.699219 195.746094 322.046875 C 195 321.9375 193.550781 321.835938 192.800781 321.726562 C 192.105469 321.621094 191.402344 321.515625 190.699219 321.578125 C 189.679688 321.667969 188.722656 322.101562 187.789062 322.527344 C 186.898438 322.9375 186.003906 323.347656 185.113281 323.753906 C 184.160156 324.644531 182.28125 324.835938 181.011719 324.53125 C 179.746094 324.226562 178.617188 323.53125 177.484375 322.882812 C 175.628906 321.816406 173.679688 320.84375 171.574219 320.460938 C 169.46875 320.078125 166.625 320.46875 164.886719 321.714844 C 160.839844 321.46875 156.847656 320.3125 153.296875 318.359375 C 152.03125 317.660156 150.820312 316.867188 149.515625 316.246094 C 148.207031 315.628906 146.78125 315.1875 145.339844 315.265625 C 143.082031 314.910156 140.191406 314.828125 137.933594 314.472656 C 137.167969 316.339844 136.292969 318.191406 135 319.738281 C 133.703125 321.285156 131.9375 322.515625 129.941406 322.816406 C 129.328125 322.910156 128.691406 322.914062 128.097656 322.730469 C 126.914062 322.371094 125.84375 321.21875 125.074219 320.25 C 123.757812 321.175781 122.105469 321.449219 120.589844 321.996094 C 119.75 322.300781 118.929688 322.695312 118.042969 322.824219 C 117.261719 322.9375 116.46875 322.835938 115.691406 322.710938 C 114.660156 322.542969 113.632812 322.328125 112.621094 322.070312 C 111.746094 321.847656 110.507812 321.683594 109.632812 321.90625 C 108.480469 322.671875 107.191406 323.277344 105.816406 323.417969 C 104.441406 323.558594 102.972656 323.195312 101.976562 322.238281 C 101.398438 321.679688 101.003906 320.957031 100.6875 320.21875 C 99.480469 317.394531 99.332031 314.136719 100.273438 311.210938 C 101.039062 308.496094 101.949219 305.160156 102.710938 302.445312 C 103.28125 300.425781 103.855469 298.394531 104 296.300781 C 104.144531 294.210938 103.832031 292.03125 102.742188 290.242188 C 102.753906 287.824219 102.550781 285.226562 102.761719 282.820312 C 102.964844 280.5 103.175781 278.15625 103.863281 275.933594 C 104.4375 274.074219 105.339844 272.335938 106.171875 270.578125 C 107.132812 268.542969 108.007812 266.46875 108.792969 264.363281 C 110.164062 262.550781 110.546875 259.363281 109.625 257.289062 C 108.703125 255.210938 106.765625 253.464844 104.863281 252.226562 C 104.285156 251.847656 103.683594 251.5 103.167969 251.039062 C 102.652344 250.582031 101.960938 249.386719 101.832031 248.710938 C 101.085938 246.585938 102.136719 244.308594 102.542969 242.097656 C 103.179688 238.640625 102.136719 234.914062 99.796875 232.289062 C 99.335938 231.769531 98.800781 231.25 98.65625 230.570312 C 98.449219 229.613281 99.0625 228.695312 99.609375 227.886719 C 101.726562 224.730469 103.492188 220.636719 104.320312 216.929688 C 103.664062 215.050781 102.71875 213.042969 102.613281 211.054688 C 102.421875 207.410156 104.117188 203.964844 105.753906 200.703125 C 107.394531 197.441406 109.441406 193.066406 109.195312 189.425781 C 110.804688 184.644531 111.230469 179.308594 105.132812 173.46875 C 102.890625 171.203125 101.574219 168.050781 101.539062 164.863281 C 101.507812 162.1875 102.339844 159.535156 102.125 156.871094 C 101.78125 152.691406 98.925781 148.597656 99.285156 144.421875 C 108.558594 144.539062 117.328125 150.351562 126.53125 151.503906 C 127.707031 151.863281 129.566406 151.820312 130.753906 151.503906 C 131.945312 151.191406 133.089844 150.714844 134.285156 150.429688 C 136.617188 149.867188 139.121094 150.039062 141.351562 150.917969 C 144.726562 151.074219 148.710938 151.417969 151.742188 152.914062 C 153.285156 153.679688 154.652344 154.757812 156.203125 155.507812 C 158.035156 156.390625 160.058594 156.785156 162.054688 157.171875 C 163.085938 157.625 164.789062 157.949219 165.882812 157.679688 C 166.980469 157.414062 167.988281 156.859375 168.894531 156.1875 C 170.011719 155.355469 170.992188 154.339844 171.773438 153.1875 C 172.582031 152 173.878906 150.308594 175.175781 149.6875 C 176.621094 148.804688 178.476562 149.058594 180.101562 149.53125 C 181.726562 150.007812 183.355469 150.679688 185.042969 150.546875 C 186.113281 150.460938 187.128906 150.054688 188.125 149.652344 C 189.222656 149.207031 190.316406 148.765625 191.414062 148.324219 C 192.902344 147.503906 195.1875 147.664062 196.839844 148.070312 C 198.488281 148.476562 200.011719 149.273438 201.53125 150.035156 C 203.046875 150.800781 204.605469 151.542969 206.285156 151.832031 C 208.238281 151.976562 210.085938 150.675781 211.757812 150.425781 C 214.9375 149.949219 218.515625 151.195312 221.484375 152.429688 C 224.253906 154.109375 227.113281 155.828125 230.316406 156.320312 C 232.367188 156.636719 235.363281 156.53125 237.261719 157.367188 C 238.960938 157.804688 240.753906 157.859375 242.480469 157.53125 C 244.589844 157.125 246.558594 156.152344 248.335938 154.949219 C 250.113281 153.746094 252.167969 152.183594 253.769531 150.75 C 256.300781 149.210938 259.421875 148.667969 262.328125 149.257812 C 263.644531 149.523438 264.914062 150.015625 266.242188 150.234375 C 268 150.40625 270.128906 149.953125 271.738281 149.214844 C 273.347656 148.480469 274.855469 147.539062 276.476562 146.828125 C 277.207031 146.507812 278.0625 146.234375 278.785156 146.578125 C 279.363281 146.847656 279.714844 147.464844 279.828125 148.09375 C 279.9375 148.71875 279.839844 149.363281 279.730469 149.988281 C 278.847656 154.964844 277.023438 159.714844 275.207031 164.429688 " fill-opacity="1" fill-rule="nonzero"/><g clip-path="url(#bf5aea6b6a)"><path fill="#006fe8" d="M 87.761719 135.4375 L 288.773438 135.4375 L 288.773438 336.449219 L 87.761719 336.449219 Z M 87.761719 135.4375 " fill-opacity="1" fill-rule="nonzero"/></g></svg>