<svg xmlns="http://www.w3.org/2000/svg" xmlns:xlink="http://www.w3.org/1999/xlink" width="1200" zoomAndPan="magnify" viewBox="0 0 900 899.99999" height="1200" preserveAspectRatio="xMidYMid meet" version="1.0"><defs><clipPath id="72545d60ba"><path d="M 241 121.875 L 597 121.875 L 597 127.875 L 241 127.875 Z M 241 121.875 " clip-rule="nonzero"/></clipPath><clipPath id="6d2e1c3d8b"><path d="M 450 0 C 201.472656 0 0 201.472656 0 450 C 0 698.527344 201.472656 900 450 900 C 698.527344 900 900 698.527344 900 450 C 900 201.472656 698.527344 0 450 0 Z M 450 0 " clip-rule="nonzero"/></clipPath><clipPath id="3cfb2b7575"><path d="M 186 90 L 714 90 L 714 731.25 L 186 731.25 Z M 186 90 " clip-rule="nonzero"/></clipPath></defs><g clip-path="url(#72545d60ba)"><path fill="#000000" d="M 596.222656 124.875 C 596.222656 126.53125 594.914062 127.875 593.296875 127.875 L 244.488281 127.875 C 242.875 127.875 241.566406 126.53125 241.566406 124.875 C 241.566406 123.21875 242.875 121.875 244.488281 121.875 L 593.296875 121.875 C 594.914062 121.875 596.222656 123.21875 596.222656 124.875 Z M 596.222656 124.875 " fill-opacity="1" fill-rule="nonzero"/></g><g clip-path="url(#6d2e1c3d8b)"><rect x="-90" width="1080" fill="#000000" y="-89.999999" height="1079.999988" fill-opacity="1"/></g><g clip-path="url(#3cfb2b7575)"><path fill="#ffffff" d="M 336.867188 580.222656 L 563.125 580.222656 L 563.125 353.96875 L 713.960938 353.96875 L 449.996094 90 L 186.027344 353.96875 L 336.867188 353.96875 Z M 186.027344 655.644531 L 713.960938 655.644531 L 713.960938 731.0625 L 186.027344 731.0625 Z M 186.027344 655.644531 " fill-opacity="1" fill-rule="nonzero"/></g></svg>