<svg width="1200" height="1200" viewBox="0 0 1200 1200" fill="none" xmlns="http://www.w3.org/2000/svg">
<rect width="1200" height="1200" rx="300" fill="#1F2220"/>
<path d="M933 935.077C933 951.234 926.619 966.733 915.266 978.156C903.914 989.579 888.511 996 872.455 996H327.545C311.488 996 296.088 989.579 284.733 978.156C273.379 966.733 267 951.234 267 935.077V264.923C267 248.765 273.379 233.269 284.733 221.844C296.088 210.419 311.488 204 327.545 204H721.091L933 417.231V935.077Z" fill="#EAE6E6" stroke="#EAE6E6" stroke-width="125" stroke-miterlimit="1.30541" stroke-linecap="round" stroke-linejoin="round"/>
<path d="M618.647 494.037C608.878 484.111 592.882 484.082 583.076 493.972L398.239 680.398C382.593 696.178 393.771 723 415.992 723H784.316C806.493 723 817.69 696.269 802.134 680.463L618.647 494.037Z" fill="#1F2220"/>
</svg>
