<svg width="382" height="207" viewBox="0 0 382 207" fill="none" xmlns="http://www.w3.org/2000/svg">
<rect x="17" y="1" width="326" height="205" rx="14" stroke="black" stroke-width="2"/>
<path d="M31 1H329C336.732 1 343 7.26801 343 15V41H17V15C17 7.26801 23.268 1 31 1Z" fill="#D9D9D9" stroke="black" stroke-width="2"/>
<rect x="105" y="54" width="223" height="138" rx="10" fill="#D9D9D9"/>
<rect x="27" y="57" width="56" height="7" fill="#A9A9A9"/>
<rect x="112" y="65" width="202" height="7" fill="#A9A9A9"/>
<rect x="27" y="18" width="78" height="7" fill="#A9A9A9"/>
<rect x="141" y="18" width="125" height="7" fill="#A9A9A9"/>
<rect x="301" y="18" width="29" height="7" fill="#6D6D6D"/>
<rect x="112" y="84" width="151" height="6" fill="#C5C5C5"/>
<rect x="112" y="102" width="123" height="7" fill="#C5C5C5"/>
<g filter="url(#filter0_d_0_1)">
<rect x="285" y="29" width="93" height="51" rx="10" fill="white"/>
</g>
<g filter="url(#filter1_d_0_1)">
<rect x="299" y="44" width="66" height="23" rx="4" fill="#222222"/>
</g>
<path d="M322.469 53.2646C322.432 52.8922 322.273 52.6029 321.993 52.3967C321.713 52.1905 321.333 52.0874 320.853 52.0874C320.527 52.0874 320.251 52.1335 320.027 52.2259C319.802 52.3151 319.63 52.4397 319.51 52.5998C319.393 52.7598 319.334 52.9414 319.334 53.1445C319.328 53.3138 319.363 53.4615 319.44 53.5877C319.52 53.7139 319.63 53.8232 319.768 53.9155C319.907 54.0047 320.067 54.0832 320.248 54.1509C320.43 54.2156 320.624 54.271 320.83 54.3171L321.679 54.5202C322.092 54.6126 322.47 54.7357 322.815 54.8896C323.16 55.0434 323.458 55.2327 323.711 55.4574C323.963 55.6821 324.158 55.9467 324.297 56.2514C324.438 56.5561 324.511 56.9054 324.514 57.2994C324.511 57.878 324.363 58.3796 324.071 58.8043C323.781 59.226 323.363 59.5537 322.815 59.7876C322.27 60.0185 321.613 60.1339 320.844 60.1339C320.08 60.1339 319.416 60.0169 318.849 59.783C318.286 59.5491 317.846 59.2029 317.529 58.7443C317.215 58.2827 317.051 57.7118 317.035 57.0316H318.969C318.991 57.3486 319.082 57.6133 319.242 57.8256C319.405 58.0349 319.622 58.1934 319.893 58.3011C320.167 58.4058 320.476 58.4581 320.821 58.4581C321.159 58.4581 321.453 58.4089 321.702 58.3104C321.955 58.2119 322.15 58.0749 322.289 57.8995C322.427 57.7241 322.496 57.5225 322.496 57.2947C322.496 57.0824 322.433 56.9039 322.307 56.7592C322.184 56.6146 322.002 56.4915 321.762 56.3899C321.525 56.2884 321.235 56.196 320.89 56.1129L319.86 55.8544C319.063 55.6605 318.434 55.3574 317.972 54.945C317.511 54.5326 317.281 53.977 317.284 53.2784C317.281 52.706 317.434 52.2058 317.741 51.7781C318.052 51.3503 318.479 51.0163 319.02 50.7763C319.562 50.5362 320.177 50.4162 320.867 50.4162C321.568 50.4162 322.181 50.5362 322.704 50.7763C323.23 51.0163 323.64 51.3503 323.932 51.7781C324.225 52.2058 324.375 52.7013 324.385 53.2646H322.469ZM327.843 60.1339C327.391 60.1339 326.988 60.0554 326.634 59.8984C326.28 59.7384 326 59.503 325.794 59.1921C325.591 58.8782 325.489 58.4873 325.489 58.0195C325.489 57.6256 325.561 57.2947 325.706 57.027C325.851 56.7592 326.048 56.5438 326.297 56.3807C326.546 56.2176 326.829 56.0945 327.146 56.0114C327.466 55.9283 327.802 55.8698 328.153 55.8359C328.565 55.7929 328.898 55.7528 329.15 55.7159C329.402 55.6759 329.585 55.6174 329.699 55.5405C329.813 55.4635 329.87 55.3497 329.87 55.1989V55.1712C329.87 54.8788 329.778 54.6526 329.593 54.4925C329.412 54.3325 329.153 54.2525 328.818 54.2525C328.464 54.2525 328.182 54.331 327.973 54.4879C327.763 54.6418 327.625 54.8357 327.557 55.0696L325.738 54.9219C325.831 54.491 326.012 54.1186 326.283 53.8047C326.554 53.4877 326.903 53.2446 327.331 53.0753C327.762 52.9029 328.26 52.8168 328.827 52.8168C329.221 52.8168 329.598 52.8629 329.958 52.9553C330.321 53.0476 330.643 53.1907 330.923 53.3846C331.206 53.5785 331.429 53.8278 331.592 54.1325C331.755 54.4341 331.837 54.7957 331.837 55.2173V60H329.972V59.0167H329.916C329.802 59.2383 329.65 59.4337 329.459 59.603C329.268 59.7692 329.039 59.9 328.771 59.9954C328.504 60.0877 328.194 60.1339 327.843 60.1339ZM328.407 58.7766C328.696 58.7766 328.951 58.7197 329.173 58.6058C329.395 58.4889 329.568 58.3319 329.695 58.1349C329.821 57.938 329.884 57.7148 329.884 57.4656V56.7131C329.822 56.7531 329.738 56.79 329.63 56.8239C329.525 56.8546 329.407 56.8839 329.275 56.9116C329.142 56.9362 329.01 56.9593 328.878 56.9808C328.745 56.9993 328.625 57.0162 328.517 57.0316C328.287 57.0655 328.085 57.1193 327.913 57.1932C327.74 57.267 327.606 57.3671 327.511 57.4933C327.416 57.6164 327.368 57.7702 327.368 57.9549C327.368 58.2227 327.465 58.4273 327.659 58.5689C327.856 58.7074 328.105 58.7766 328.407 58.7766ZM339.719 52.9091L337.24 60H335.024L332.545 52.9091H334.623L336.095 57.9826H336.169L337.637 52.9091H339.719ZM343.729 60.1385C342.999 60.1385 342.371 59.9908 341.845 59.6953C341.322 59.3968 340.919 58.9751 340.636 58.4304C340.353 57.8826 340.211 57.2347 340.211 56.4869C340.211 55.7575 340.353 55.1173 340.636 54.5664C340.919 54.0155 341.317 53.5862 341.831 53.2784C342.348 52.9706 342.955 52.8168 343.65 52.8168C344.118 52.8168 344.554 52.8922 344.957 53.043C345.363 53.1907 345.717 53.4138 346.019 53.7124C346.323 54.0109 346.56 54.3864 346.729 54.8388C346.899 55.2881 346.983 55.8144 346.983 56.4176V56.9577H340.996V55.739H345.132C345.132 55.4558 345.071 55.205 344.947 54.9865C344.824 54.768 344.654 54.5972 344.435 54.4741C344.22 54.3479 343.969 54.2848 343.683 54.2848C343.384 54.2848 343.119 54.354 342.889 54.4925C342.661 54.628 342.482 54.8111 342.353 55.0419C342.224 55.2696 342.158 55.5236 342.155 55.8036V56.9624C342.155 57.3132 342.219 57.6164 342.348 57.8718C342.481 58.1272 342.667 58.3242 342.907 58.4627C343.147 58.6012 343.432 58.6705 343.761 58.6705C343.98 58.6705 344.18 58.6397 344.361 58.5781C344.543 58.5166 344.698 58.4242 344.827 58.3011C344.957 58.178 345.055 58.0272 345.123 57.8487L346.942 57.9688C346.849 58.4058 346.66 58.7874 346.374 59.1136C346.091 59.4368 345.725 59.6892 345.275 59.8707C344.829 60.0492 344.313 60.1385 343.729 60.1385Z" fill="white"/>
<path d="M92 41V206H31C23.268 206 17 199.732 17 192V41H92Z" fill="#D9D9D9" stroke="black" stroke-width="2"/>
<g filter="url(#filter2_d_0_1)">
<rect x="4" y="59" width="79.2946" height="52.8631" rx="10" fill="white"/>
</g>
<g filter="url(#filter3_d_0_1)">
<rect x="14.1736" y="72.8321" width="60.0916" height="24.916" rx="12.458" transform="rotate(-0.398407 14.1736 72.8321)" fill="url(#paint0_linear_0_1)"/>
<rect x="15.1806" y="73.8251" width="58.0916" height="22.916" rx="11.458" transform="rotate(-0.398407 15.1806 73.8251)" stroke="black" stroke-width="2"/>
</g>
<circle cx="61.8927" cy="84.9586" r="11.458" transform="rotate(-0.398407 61.8927 84.9586)" fill="#816BC3" stroke="black" stroke-width="2"/>
<rect x="24" y="49" width="59" height="7" fill="#6D6D6D"/>
<defs>
<filter id="filter0_d_0_1" x="281" y="29" width="101" height="59" filterUnits="userSpaceOnUse" color-interpolation-filters="sRGB">
<feFlood flood-opacity="0" result="BackgroundImageFix"/>
<feColorMatrix in="SourceAlpha" type="matrix" values="0 0 0 0 0 0 0 0 0 0 0 0 0 0 0 0 0 0 127 0" result="hardAlpha"/>
<feOffset dy="4"/>
<feGaussianBlur stdDeviation="2"/>
<feComposite in2="hardAlpha" operator="out"/>
<feColorMatrix type="matrix" values="0 0 0 0 0 0 0 0 0 0 0 0 0 0 0 0 0 0 0.25 0"/>
<feBlend mode="normal" in2="BackgroundImageFix" result="effect1_dropShadow_0_1"/>
<feBlend mode="normal" in="SourceGraphic" in2="effect1_dropShadow_0_1" result="shape"/>
</filter>
<filter id="filter1_d_0_1" x="295" y="44" width="74" height="31" filterUnits="userSpaceOnUse" color-interpolation-filters="sRGB">
<feFlood flood-opacity="0" result="BackgroundImageFix"/>
<feColorMatrix in="SourceAlpha" type="matrix" values="0 0 0 0 0 0 0 0 0 0 0 0 0 0 0 0 0 0 127 0" result="hardAlpha"/>
<feOffset dy="4"/>
<feGaussianBlur stdDeviation="2"/>
<feComposite in2="hardAlpha" operator="out"/>
<feColorMatrix type="matrix" values="0 0 0 0 0 0 0 0 0 0 0 0 0 0 0 0 0 0 0.25 0"/>
<feBlend mode="normal" in2="BackgroundImageFix" result="effect1_dropShadow_0_1"/>
<feBlend mode="normal" in="SourceGraphic" in2="effect1_dropShadow_0_1" result="shape"/>
</filter>
<filter id="filter2_d_0_1" x="0" y="59" width="87.2946" height="60.8631" filterUnits="userSpaceOnUse" color-interpolation-filters="sRGB">
<feFlood flood-opacity="0" result="BackgroundImageFix"/>
<feColorMatrix in="SourceAlpha" type="matrix" values="0 0 0 0 0 0 0 0 0 0 0 0 0 0 0 0 0 0 127 0" result="hardAlpha"/>
<feOffset dy="4"/>
<feGaussianBlur stdDeviation="2"/>
<feComposite in2="hardAlpha" operator="out"/>
<feColorMatrix type="matrix" values="0 0 0 0 0 0 0 0 0 0 0 0 0 0 0 0 0 0 0.25 0"/>
<feBlend mode="normal" in2="BackgroundImageFix" result="effect1_dropShadow_0_1"/>
<feBlend mode="normal" in="SourceGraphic" in2="effect1_dropShadow_0_1" result="shape"/>
</filter>
<filter id="filter3_d_0_1" x="10.26" y="72.5006" width="68.0908" height="33.1606" filterUnits="userSpaceOnUse" color-interpolation-filters="sRGB">
<feFlood flood-opacity="0" result="BackgroundImageFix"/>
<feColorMatrix in="SourceAlpha" type="matrix" values="0 0 0 0 0 0 0 0 0 0 0 0 0 0 0 0 0 0 127 0" result="hardAlpha"/>
<feOffset dy="4"/>
<feGaussianBlur stdDeviation="2"/>
<feComposite in2="hardAlpha" operator="out"/>
<feColorMatrix type="matrix" values="0 0 0 0 0 0 0 0 0 0 0 0 0 0 0 0 0 0 0.25 0"/>
<feBlend mode="normal" in2="BackgroundImageFix" result="effect1_dropShadow_0_1"/>
<feBlend mode="normal" in="SourceGraphic" in2="effect1_dropShadow_0_1" result="shape"/>
</filter>
<linearGradient id="paint0_linear_0_1" x1="14.1736" y1="85.2901" x2="74.2652" y2="85.2901" gradientUnits="userSpaceOnUse">
<stop stop-color="#3E60B1"/>
<stop offset="1" stop-color="#D8E0F3"/>
</linearGradient>
</defs>
</svg>
