<svg width="328" height="207" viewBox="0 0 328 207" fill="none" xmlns="http://www.w3.org/2000/svg">
<rect x="1" y="1" width="326" height="205" rx="14" stroke="black" stroke-width="2"/>
<path d="M15 1H313C320.732 1 327 7.26802 327 15V41H1V15L1.00488 14.6387C1.19654 7.07368 7.38882 1 15 1Z" fill="#D9D9D9" stroke="black" stroke-width="2"/>
<path d="M327 41V197C327 201.971 322.971 206 318 206H229V41H327Z" fill="white" stroke="black" stroke-width="2"/>
<rect x="238" y="126" width="83" height="40" rx="9" fill="white" stroke="black" stroke-width="2" stroke-dasharray="4 4"/>
<rect x="128" y="17" width="78" height="7" fill="#A9A9A9"/>
<rect x="295" y="17" width="18" height="2" fill="#A9A9A9"/>
<rect x="295" y="21" width="18" height="2" fill="#A9A9A9"/>
<rect x="295" y="25" width="18" height="2" fill="#A9A9A9"/>
<rect x="237" y="90" width="85" height="27" rx="4" fill="#C5C5C5"/>
<rect x="237" y="54" width="85" height="27" rx="4" fill="#C5C5C5"/>
<rect x="237" y="172" width="85" height="23" rx="4" fill="#6D6D6D"/>
<rect x="11" y="55" width="207" height="136" rx="9" fill="white" stroke="black" stroke-width="2"/>
<rect x="17" y="65" width="189" height="7" fill="#A9A9A9"/>
<rect x="17" y="84" width="141" height="6" fill="#C5C5C5"/>
<rect x="17" y="102" width="115" height="7" fill="#C5C5C5"/>
<path d="M261.161 182.801H259.45C259.419 182.579 259.355 182.383 259.259 182.211C259.162 182.036 259.039 181.888 258.888 181.766C258.737 181.643 258.562 181.549 258.364 181.484C258.169 181.419 257.957 181.387 257.728 181.387C257.313 181.387 256.953 181.49 256.646 181.695C256.338 181.898 256.1 182.195 255.931 182.586C255.761 182.974 255.677 183.445 255.677 184C255.677 184.57 255.761 185.049 255.931 185.437C256.103 185.826 256.342 186.118 256.649 186.316C256.957 186.514 257.312 186.613 257.716 186.613C257.942 186.613 258.152 186.583 258.345 186.523C258.54 186.464 258.713 186.376 258.864 186.262C259.015 186.145 259.14 186.003 259.239 185.836C259.341 185.669 259.411 185.479 259.45 185.266L261.161 185.273C261.117 185.641 261.006 185.995 260.829 186.336C260.655 186.674 260.419 186.978 260.122 187.246C259.828 187.512 259.476 187.723 259.067 187.879C258.661 188.033 258.201 188.109 257.688 188.109C256.975 188.109 256.337 187.948 255.774 187.625C255.215 187.302 254.772 186.835 254.446 186.223C254.123 185.611 253.962 184.87 253.962 184C253.962 183.128 254.126 182.385 254.454 181.773C254.782 181.161 255.228 180.695 255.79 180.375C256.353 180.052 256.985 179.891 257.688 179.891C258.152 179.891 258.582 179.956 258.978 180.086C259.376 180.216 259.729 180.406 260.036 180.656C260.343 180.904 260.593 181.207 260.786 181.566C260.981 181.926 261.106 182.337 261.161 182.801ZM264.007 184.531V188H262.343V180H263.96V183.059H264.03C264.166 182.704 264.384 182.427 264.687 182.227C264.989 182.023 265.368 181.922 265.823 181.922C266.24 181.922 266.603 182.013 266.913 182.195C267.226 182.375 267.468 182.634 267.64 182.973C267.814 183.309 267.9 183.711 267.897 184.18V188H266.233V184.477C266.236 184.107 266.142 183.819 265.952 183.613C265.765 183.408 265.502 183.305 265.163 183.305C264.937 183.305 264.736 183.353 264.562 183.449C264.39 183.546 264.254 183.686 264.155 183.871C264.059 184.053 264.009 184.273 264.007 184.531ZM271.941 188.117C271.324 188.117 270.793 187.992 270.348 187.742C269.905 187.49 269.564 187.133 269.324 186.672C269.085 186.208 268.965 185.66 268.965 185.027C268.965 184.41 269.085 183.868 269.324 183.402C269.564 182.936 269.901 182.573 270.336 182.312C270.773 182.052 271.286 181.922 271.875 181.922C272.271 181.922 272.639 181.986 272.98 182.113C273.324 182.238 273.624 182.427 273.879 182.68C274.137 182.932 274.337 183.25 274.48 183.633C274.624 184.013 274.695 184.458 274.695 184.969V185.426H269.629V184.395H273.129C273.129 184.155 273.077 183.943 272.973 183.758C272.868 183.573 272.724 183.428 272.539 183.324C272.357 183.217 272.145 183.164 271.902 183.164C271.65 183.164 271.426 183.223 271.23 183.34C271.038 183.454 270.887 183.609 270.777 183.805C270.668 183.997 270.612 184.212 270.609 184.449V185.43C270.609 185.727 270.664 185.983 270.773 186.199C270.885 186.415 271.043 186.582 271.246 186.699C271.449 186.816 271.69 186.875 271.969 186.875C272.154 186.875 272.323 186.849 272.477 186.797C272.63 186.745 272.762 186.667 272.871 186.562C272.98 186.458 273.064 186.331 273.121 186.18L274.66 186.281C274.582 186.651 274.422 186.974 274.18 187.25C273.94 187.523 273.63 187.737 273.25 187.891C272.872 188.042 272.436 188.117 271.941 188.117ZM278.492 188.117C277.878 188.117 277.349 187.987 276.906 187.727C276.466 187.464 276.128 187.099 275.891 186.633C275.656 186.167 275.539 185.63 275.539 185.023C275.539 184.409 275.658 183.87 275.895 183.406C276.134 182.94 276.474 182.577 276.914 182.316C277.354 182.053 277.878 181.922 278.484 181.922C279.008 181.922 279.466 182.017 279.859 182.207C280.253 182.397 280.564 182.664 280.793 183.008C281.022 183.352 281.148 183.755 281.172 184.219H279.602C279.557 183.919 279.44 183.678 279.25 183.496C279.063 183.311 278.816 183.219 278.512 183.219C278.254 183.219 278.029 183.289 277.836 183.43C277.646 183.568 277.497 183.77 277.391 184.035C277.284 184.301 277.23 184.622 277.23 185C277.23 185.383 277.283 185.708 277.387 185.977C277.493 186.245 277.643 186.449 277.836 186.59C278.029 186.73 278.254 186.801 278.512 186.801C278.702 186.801 278.872 186.762 279.023 186.684C279.177 186.605 279.303 186.492 279.402 186.344C279.504 186.193 279.57 186.012 279.602 185.801H281.172C281.146 186.259 281.021 186.663 280.797 187.012C280.576 187.358 280.27 187.629 279.879 187.824C279.488 188.02 279.026 188.117 278.492 188.117ZM283.745 186.273L283.749 184.277H283.991L285.913 182H287.823L285.241 185.016H284.847L283.745 186.273ZM282.237 188V180H283.901V188H282.237ZM285.987 188L284.222 185.387L285.331 184.211L287.937 188H285.987ZM291.104 188.117C290.497 188.117 289.972 187.988 289.529 187.73C289.089 187.47 288.749 187.108 288.51 186.645C288.27 186.178 288.15 185.638 288.15 185.023C288.15 184.404 288.27 183.862 288.51 183.398C288.749 182.932 289.089 182.57 289.529 182.312C289.972 182.052 290.497 181.922 291.104 181.922C291.71 181.922 292.234 182.052 292.674 182.312C293.117 182.57 293.458 182.932 293.697 183.398C293.937 183.862 294.057 184.404 294.057 185.023C294.057 185.638 293.937 186.178 293.697 186.645C293.458 187.108 293.117 187.47 292.674 187.73C292.234 187.988 291.71 188.117 291.104 188.117ZM291.111 186.828C291.387 186.828 291.618 186.75 291.803 186.594C291.988 186.435 292.127 186.219 292.221 185.945C292.317 185.672 292.365 185.361 292.365 185.012C292.365 184.663 292.317 184.352 292.221 184.078C292.127 183.805 291.988 183.589 291.803 183.43C291.618 183.271 291.387 183.191 291.111 183.191C290.833 183.191 290.598 183.271 290.408 183.43C290.221 183.589 290.079 183.805 289.982 184.078C289.889 184.352 289.842 184.663 289.842 185.012C289.842 185.361 289.889 185.672 289.982 185.945C290.079 186.219 290.221 186.435 290.408 186.594C290.598 186.75 290.833 186.828 291.111 186.828ZM298.986 185.445V182H300.65V188H299.053V186.91H298.99C298.855 187.262 298.63 187.544 298.314 187.758C298.002 187.971 297.62 188.078 297.17 188.078C296.769 188.078 296.416 187.987 296.111 187.805C295.807 187.622 295.568 187.363 295.396 187.027C295.227 186.691 295.141 186.289 295.139 185.82V182H296.803V185.523C296.805 185.878 296.9 186.158 297.088 186.363C297.275 186.569 297.527 186.672 297.842 186.672C298.042 186.672 298.23 186.626 298.404 186.535C298.579 186.441 298.719 186.303 298.826 186.121C298.936 185.939 298.989 185.714 298.986 185.445ZM305.173 182V183.25H301.56V182H305.173ZM302.38 180.562H304.044V186.156C304.044 186.31 304.067 186.43 304.114 186.516C304.161 186.599 304.226 186.658 304.31 186.691C304.396 186.725 304.494 186.742 304.606 186.742C304.685 186.742 304.763 186.736 304.841 186.723C304.919 186.707 304.979 186.695 305.021 186.687L305.282 187.926C305.199 187.952 305.082 187.982 304.931 188.016C304.78 188.052 304.596 188.074 304.38 188.082C303.979 188.098 303.627 188.044 303.325 187.922C303.026 187.799 302.793 187.609 302.626 187.352C302.459 187.094 302.377 186.768 302.38 186.375V180.562Z" fill="white"/>
</svg>
