<svg width="332" height="207" viewBox="0 0 332 207" fill="none" xmlns="http://www.w3.org/2000/svg">
<rect x="13" y="125" width="78" height="7" fill="#A9A9A9"/>
<rect x="241" y="126" width="78" height="7" fill="#A9A9A9"/>
<rect x="13" y="147" width="78" height="7" fill="#A9A9A9"/>
<rect x="241" y="148" width="78" height="7" fill="#A9A9A9"/>
<rect x="20" y="169" width="63" height="7" fill="#A9A9A9"/>
<rect x="248" y="170" width="63" height="7" fill="#A9A9A9"/>
<rect x="1" y="1" width="102" height="205" rx="14" stroke="black" stroke-width="2"/>
<rect x="115" y="1" width="102" height="205" rx="14" fill="#EAFEF1" stroke="#448434" stroke-width="2"/>
<rect x="229" y="1" width="102" height="205" rx="14" stroke="black" stroke-width="2"/>
<circle cx="51.5" cy="66.5" r="30.5" fill="url(#paint0_linear_9_107)" stroke="black" stroke-width="2"/>
<path d="M50.6932 81.7273V54.4545H52.4403V81.7273H50.6932ZM56.5739 62.6364C56.446 61.5568 55.9276 60.7188 55.0185 60.1222C54.1094 59.5256 52.9943 59.2273 51.6733 59.2273C50.7074 59.2273 49.8622 59.3835 49.1378 59.696C48.4205 60.0085 47.8594 60.4382 47.4545 60.9851C47.0568 61.532 46.858 62.1534 46.858 62.8494C46.858 63.4318 46.9964 63.9325 47.2734 64.3516C47.5575 64.7635 47.9197 65.108 48.3601 65.3849C48.8004 65.6548 49.2621 65.8786 49.745 66.0561C50.228 66.2266 50.6719 66.3651 51.0767 66.4716L53.2926 67.0682C53.8608 67.2173 54.4929 67.4233 55.1889 67.6861C55.892 67.9489 56.5632 68.3075 57.2024 68.7621C57.8487 69.2095 58.3814 69.7848 58.8004 70.4879C59.2195 71.1911 59.429 72.054 59.429 73.0767C59.429 74.2557 59.12 75.321 58.5021 76.2727C57.8913 77.2244 56.9964 77.9808 55.8175 78.5419C54.6456 79.103 53.2216 79.3835 51.5455 79.3835C49.983 79.3835 48.63 79.1314 47.4865 78.6271C46.3501 78.1229 45.4553 77.4197 44.8018 76.5178C44.1555 75.6158 43.7898 74.5682 43.7045 73.375H46.4318C46.5028 74.1989 46.7798 74.8807 47.2628 75.4205C47.7528 75.9531 48.3707 76.3509 49.1165 76.6136C49.8693 76.8693 50.679 76.9972 51.5455 76.9972C52.554 76.9972 53.4595 76.8338 54.2621 76.5071C55.0646 76.1733 55.7003 75.7116 56.169 75.1222C56.6378 74.5256 56.8722 73.8295 56.8722 73.0341C56.8722 72.3097 56.6697 71.7202 56.2649 71.2656C55.8601 70.8111 55.3274 70.4418 54.6669 70.1577C54.0064 69.8736 53.2926 69.625 52.5256 69.4119L49.8409 68.6449C48.1364 68.1548 46.7869 67.4553 45.7926 66.5462C44.7983 65.6371 44.3011 64.4474 44.3011 62.9773C44.3011 61.7557 44.6314 60.6903 45.2919 59.7812C45.9595 58.8651 46.8544 58.1548 47.9766 57.6506C49.1058 57.1392 50.3665 56.8835 51.7585 56.8835C53.1648 56.8835 54.4148 57.1357 55.5085 57.6399C56.6023 58.1371 57.4688 58.8189 58.108 59.6854C58.7543 60.5518 59.0952 61.5355 59.1307 62.6364H56.5739Z" fill="black"/>
<circle cx="166.5" cy="65.5" r="30.5" fill="url(#paint1_linear_9_107)" stroke="black" stroke-width="2"/>
<g clip-path="url(#paint2_diamond_9_107_clip_path)" data-figma-skip-parse="true"><g transform="matrix(0 -0.037 0.037 0 280 66)"><rect x="0" y="0" width="1054.05" height="1054.05" fill="url(#paint2_diamond_9_107)" opacity="0.25" shape-rendering="crispEdges"/><rect x="0" y="0" width="1054.05" height="1054.05" transform="scale(1 -1)" fill="url(#paint2_diamond_9_107)" opacity="0.25" shape-rendering="crispEdges"/><rect x="0" y="0" width="1054.05" height="1054.05" transform="scale(-1 1)" fill="url(#paint2_diamond_9_107)" opacity="0.25" shape-rendering="crispEdges"/><rect x="0" y="0" width="1054.05" height="1054.05" transform="scale(-1)" fill="url(#paint2_diamond_9_107)" opacity="0.25" shape-rendering="crispEdges"/></g></g><path d="M278.206 34.8936C278.94 33.4071 281.06 33.4071 281.794 34.8936L289.279 50.0615C289.862 51.2421 290.988 52.0607 292.291 52.25L309.03 54.6816C310.67 54.9203 311.326 56.9368 310.139 58.0938L298.026 69.8994C297.084 70.8184 296.653 72.1429 296.876 73.4404L299.735 90.1113C300.016 91.7451 298.3 92.9911 296.833 92.2197L281.861 84.3486C280.696 83.7361 279.304 83.7361 278.139 84.3486L263.167 92.2197C261.7 92.9911 259.984 91.7451 260.265 90.1113L263.124 73.4404C263.347 72.1429 262.916 70.8184 261.974 69.8994L249.861 58.0928C248.675 56.9357 249.33 54.9203 250.97 54.6816L267.709 52.25C269.012 52.0607 270.138 51.2421 270.721 50.0615L278.206 34.8936Z" data-figma-gradient-fill="{&#34;type&#34;:&#34;GRADIENT_DIAMOND&#34;,&#34;stops&#34;:[{&#34;color&#34;:{&#34;r&#34;:0.78476446866989136,&#34;g&#34;:0.82211536169052124,&#34;b&#34;:0.50196468830108643,&#34;a&#34;:1.0},&#34;position&#34;:0.0},{&#34;color&#34;:{&#34;r&#34;:0.98076921701431274,&#34;g&#34;:0.94886279106140137,&#34;b&#34;:0.023576183244585991,&#34;a&#34;:1.0},&#34;position&#34;:1.0}],&#34;stopsVar&#34;:[{&#34;color&#34;:{&#34;r&#34;:0.78476446866989136,&#34;g&#34;:0.82211536169052124,&#34;b&#34;:0.50196468830108643,&#34;a&#34;:1.0},&#34;position&#34;:0.0},{&#34;color&#34;:{&#34;r&#34;:0.98076921701431274,&#34;g&#34;:0.94886279106140137,&#34;b&#34;:0.023576183244585991,&#34;a&#34;:1.0},&#34;position&#34;:1.0}],&#34;transform&#34;:{&#34;m00&#34;:-4.5311934339744599e-15,&#34;m01&#34;:74.0,&#34;m02&#34;:243.0,&#34;m10&#34;:-74.0,&#34;m11&#34;:-4.5311934339744599e-15,&#34;m12&#34;:103.0},&#34;opacity&#34;:0.250,&#34;blendMode&#34;:&#34;NORMAL&#34;,&#34;visible&#34;:true}" stroke="black" stroke-width="2"/>
<path d="M158.5 68L164.333 73L177 57" stroke="black" stroke-width="4" stroke-linecap="round" stroke-linejoin="round"/>
<rect x="126" y="148" width="78" height="7" fill="#A9A9A9"/>
<rect x="127" y="126" width="78" height="7" fill="#A9A9A9"/>
<rect x="135" y="170" width="63" height="7" fill="#A9A9A9"/>
<defs>
<clipPath id="paint2_diamond_9_107_clip_path"><path d="M278.206 34.8936C278.94 33.4071 281.06 33.4071 281.794 34.8936L289.279 50.0615C289.862 51.2421 290.988 52.0607 292.291 52.25L309.03 54.6816C310.67 54.9203 311.326 56.9368 310.139 58.0938L298.026 69.8994C297.084 70.8184 296.653 72.1429 296.876 73.4404L299.735 90.1113C300.016 91.7451 298.3 92.9911 296.833 92.2197L281.861 84.3486C280.696 83.7361 279.304 83.7361 278.139 84.3486L263.167 92.2197C261.7 92.9911 259.984 91.7451 260.265 90.1113L263.124 73.4404C263.347 72.1429 262.916 70.8184 261.974 69.8994L249.861 58.0928C248.675 56.9357 249.33 54.9203 250.97 54.6816L267.709 52.25C269.012 52.0607 270.138 51.2421 270.721 50.0615L278.206 34.8936Z" stroke-width="2"/></clipPath><linearGradient id="paint0_linear_9_107" x1="51.5" y1="35" x2="51.5" y2="98" gradientUnits="userSpaceOnUse">
<stop stop-color="#A6A1F3"/>
<stop offset="1" stop-color="#7D8EFF"/>
</linearGradient>
<linearGradient id="paint1_linear_9_107" x1="135" y1="65.5" x2="198" y2="65.5" gradientUnits="userSpaceOnUse">
<stop stop-color="#EDF0EE"/>
<stop offset="1" stop-color="#68D48C"/>
</linearGradient>
<linearGradient id="paint2_diamond_9_107" x1="0" y1="0" x2="500" y2="500" gradientUnits="userSpaceOnUse">
<stop stop-color="#C8D280"/>
<stop offset="1" stop-color="#FAF206"/>
</linearGradient>
</defs>
</svg>
